{"glyphs":{"0":{"ha":610,"x_min":-17,"x_max":560,"o":"m 408 946 q 560 797 560 946 l 560 135 q 407 -14 560 -14 l 136 -14 q -17 136 -17 -14 l -17 796 q 136 946 -17 945 l 408 946 m 271 149 l 272 149 q 322 203 322 149 l 322 729 q 271 783 322 783 q 220 729 220 783 l 220 203 q 271 149 220 149 z "},"1":{"ha":339,"x_min":-22,"x_max":288,"o":"m 55 946 l 288 946 l 288 -14 l 51 -14 l 51 732 l -22 732 l 55 946 z "},"2":{"ha":610,"x_min":-17,"x_max":561,"o":"m 321 729 q 271 783 321 783 l -17 783 l -17 946 l 406 946 q 560 797 559 946 l 561 537 q 406 393 559 394 l 271 393 q 220 338 220 393 l 220 149 l 559 149 l 559 -14 l -17 -14 l -17 407 q 134 556 -17 556 l 271 556 q 321 593 321 556 l 321 729 z "},"3":{"ha":610,"x_min":-17,"x_max":560,"o":"m 321 729 q 271 783 321 783 l -17 783 l -17 946 l 407 946 q 559 798 559 945 l 559 610 q 519 475 559 481 q 560 339 560 469 l 559 136 q 408 -14 559 -14 l -17 -14 l -17 149 l 271 149 q 322 203 322 149 l 322 338 q 272 393 321 393 l 102 393 l 102 557 l 273 557 q 321 610 321 557 l 321 729 z "},"4":{"ha":610,"x_min":-17,"x_max":560,"o":"m 220 810 l 221 420 l 322 420 l 322 945 l 560 946 l 559 -14 l 322 -14 l 323 258 l -17 258 l -16 810 l 220 810 z "},"5":{"ha":610,"x_min":-17,"x_max":560,"o":"m 321 203 l 322 338 q 271 394 322 389 l 136 394 q -17 543 -17 394 l -17 946 l 560 946 l 559 783 l 220 783 l 220 610 l 220 609 q 271 556 220 556 l 407 556 q 559 409 559 556 l 559 134 q 407 -14 559 -14 l -17 -14 l -17 149 l 271 149 q 321 203 321 149 z "},"6":{"ha":610,"x_min":-17,"x_max":559,"o":"m -17 798 q 136 946 -17 945 l 559 946 l 559 783 l 271 783 q 220 729 220 783 l 220 556 l 407 556 q 559 407 559 556 l 559 134 q 407 -14 559 -14 l 133 -14 q -17 133 -17 -14 l -17 798 m 220 203 q 271 149 220 149 q 322 203 322 149 l 322 339 q 271 393 322 393 l 220 393 l 220 203 z "},"7":{"ha":610,"x_min":-17,"x_max":559,"o":"m 333 783 l -17 783 l -17 946 l 559 946 l 559 778 l 267 -14 l 45 -14 l 333 783 z "},"8":{"ha":610,"x_min":-18,"x_max":560,"o":"m -17 610 l -18 796 q 136 946 -18 946 l 407 946 q 559 797 559 946 l 560 610 q 520 475 560 480 q 559 340 559 469 l 559 136 q 407 -14 559 -14 l 135 -14 q -17 136 -17 -14 l -17 339 q 22 475 -17 469 q -17 610 -17 480 m 220 203 q 271 149 220 149 q 322 203 322 149 l 322 339 q 271 394 322 394 q 220 338 220 394 l 220 203 m 271 556 q 322 611 322 556 l 321 729 q 271 783 321 783 q 220 729 220 783 l 220 610 q 271 556 220 557 z "},"9":{"ha":610,"x_min":-17,"x_max":559,"o":"m 559 134 q 407 -14 559 -13 l -17 -14 l -17 149 l 271 149 q 321 203 321 149 l 321 377 l 136 377 q -17 526 -17 377 l -17 798 q 136 946 -17 946 l 410 946 q 559 800 559 946 l 559 134 m 321 730 q 271 783 321 783 q 220 729 220 783 l 220 593 q 271 540 220 540 l 321 539 l 321 730 z "},"\u0000":{"ha":0,"x_min":0,"x_max":0,"o":""},"\u001d":{"ha":0,"x_min":0,"x_max":0,"o":""}," ":{"ha":407,"x_min":0,"x_max":0,"o":""}," ":{"ha":407,"x_min":0,"x_max":0,"o":""},"!":{"ha":271,"x_min":-17,"x_max":220,"o":"m -17 946 l 220 946 l 220 240 l -17 240 l -17 946 m 220 -14 l -17 -14 l -17 200 l 220 200 l 220 -14 z "},"\"":{"ha":644,"x_min":-17,"x_max":593,"o":"m 288 797 q 136 648 288 648 l -17 648 l -17 810 l 34 810 q 51 831 51 810 l 51 997 l 288 997 l 288 810 l 339 810 q 356 831 356 810 l 356 997 l 593 997 l 593 797 q 441 648 593 648 l 288 648 l 288 797 z "},"#":{"ha":814,"x_min":-17,"x_max":764,"o":"m -17 641 l 119 642 l 119 682 l -17 682 l -17 844 l 119 844 l 119 980 l 355 980 l 356 844 l 391 844 l 391 980 l 628 980 l 627 844 l 763 844 l 762 682 l 627 682 l 627 641 l 764 642 l 763 479 l 627 479 l 627 342 l 391 342 l 391 478 l 356 478 l 355 342 l 119 342 l 119 478 l -17 479 l -17 641 m 356 641 l 391 641 l 391 682 l 356 682 l 356 641 z "},"$":{"ha":610,"x_min":-17,"x_max":559,"o":"m 390 54 l 390 -14 l 153 -14 l 153 54 l -17 53 l -17 217 l 271 216 q 322 271 322 216 l 322 322 q 273 376 322 376 l 271 376 l 135 377 q -17 526 -16 387 l -17 729 q 136 878 -17 878 l 153 878 l 153 946 l 389 946 l 389 878 l 559 878 l 559 715 l 266 715 q 220 667 220 715 l 220 593 q 271 539 220 539 l 408 539 q 559 408 559 539 l 559 203 q 408 54 559 54 l 390 54 z "},"%":{"ha":678,"x_min":-17,"x_max":627,"o":"m 361 878 l 600 878 l 266 54 l 9 54 l 361 878 m 66 648 q -17 732 -16 651 l -17 865 q 68 946 -14 946 l 170 946 q 254 865 250 944 l 254 729 q 169 648 254 648 l 66 648 m 440 -14 q 356 68 356 -9 l 356 186 q 458 284 357 283 l 544 284 q 627 203 627 284 l 627 68 q 532 -14 627 -14 l 440 -14 z "},"&":{"ha":678,"x_min":-18,"x_max":627,"o":"m 220 203 q 271 149 220 149 l 322 149 l 322 462 l 271 462 q 220 406 220 462 l 220 203 m 321 726 l 559 726 l 559 624 l 627 624 l 627 460 l 560 460 l 560 149 l 627 149 l 627 -14 l 135 -14 q -17 136 -17 -14 l -17 407 q 22 543 -17 537 q -17 678 -17 548 l -18 796 q 136 946 -18 946 l 288 946 l 288 783 q 220 729 220 783 l 220 678 q 271 624 220 625 l 322 624 l 321 726 z "},"'":{"ha":339,"x_min":-17,"x_max":288,"o":"m 288 797 q 136 648 288 648 l -17 648 l -17 810 l 34 810 q 51 831 51 810 l 51 997 l 288 997 l 288 797 z "},"(":{"ha":407,"x_min":-17,"x_max":356,"o":"m 356 -149 l 136 -149 q -17 -3 -17 -149 l -17 830 q 136 979 -17 979 l 356 979 l 356 817 l 271 817 q 220 763 220 817 l 220 67 q 271 13 220 13 l 356 13 l 356 -149 z "},")":{"ha":407,"x_min":-17,"x_max":356,"o":"m -17 13 l 68 13 q 119 67 119 13 l 119 763 q 68 817 119 817 l -17 817 l -17 979 l 203 979 q 356 830 356 979 l 356 -3 q 203 -149 356 -149 l -17 -149 l -17 13 z "},"*":{"ha":763,"x_min":-17,"x_max":712,"o":"m 424 810 q 474 861 474 814 l 474 947 l 712 947 l 712 865 q 684 730 712 736 q 712 593 712 723 l 712 512 l 475 512 l 475 592 q 424 648 475 648 l 424 427 l 254 427 l 254 646 q 220 595 220 639 l 220 593 l 220 512 l -17 512 l -17 593 q 11 729 -17 722 q -17 865 -17 736 l -17 946 l 220 946 l 220 865 q 254 812 220 821 l 254 1014 l 424 1014 l 424 810 z "},"+":{"ha":543,"x_min":-17,"x_max":492,"o":"m -17 556 l 119 557 l 119 692 l 356 692 l 356 556 l 492 557 l 492 394 l 356 393 l 356 258 l 119 258 l 119 394 l -17 393 l -17 556 z "},",":{"ha":339,"x_min":-17,"x_max":288,"o":"m 288 0 q 136 -149 288 -149 l -17 -149 l -17 14 l 34 14 q 51 34 51 14 l 51 200 l 288 200 l 288 0 z "},"-":{"ha":543,"x_min":-17,"x_max":492,"o":"m -17 556 l 492 556 l 492 394 l -17 394 l -17 556 z "},"­":{"ha":543,"x_min":-17,"x_max":492,"o":"m -17 556 l 492 556 l 492 394 l -17 394 l -17 556 z "},".":{"ha":271,"x_min":-17,"x_max":220,"o":"m 220 -14 l -17 -14 l -17 200 l 220 200 l 220 -14 z "},"/":{"ha":610,"x_min":-22,"x_max":565,"o":"m 326 946 l 565 946 l 216 -14 l -22 -14 l 326 946 z "},":":{"ha":271,"x_min":-17,"x_max":220,"o":"m 220 -14 l -17 -14 l -17 200 l 220 200 l 220 -14 m 220 241 l -17 241 l -17 454 l 220 454 l 220 241 z "},";":{"ha":339,"x_min":-17,"x_max":288,"o":"m 288 0 q 136 -149 288 -149 l -17 -149 l -17 14 l 34 14 q 51 34 51 14 l 51 200 l 288 200 l 288 0 m 288 241 l 51 241 l 51 454 l 288 454 l 288 241 z "},";":{"ha":339,"x_min":-17,"x_max":288,"o":"m 288 0 q 136 -149 288 -149 l -17 -149 l -17 14 l 34 14 q 51 34 51 14 l 51 200 l 288 200 l 288 0 m 288 241 l 51 241 l 51 454 l 288 454 l 288 241 z "},"<":{"ha":543,"x_min":-17,"x_max":492,"o":"m -17 569 l 492 714 l 492 550 l 200 467 l 492 384 l 492 218 l -17 363 l -17 569 z "},"=":{"ha":543,"x_min":-17,"x_max":492,"o":"m -17 421 l 492 421 l 492 257 l -17 257 l -17 421 m -17 675 l 492 675 l 492 512 l -17 512 l -17 675 z "},">":{"ha":543,"x_min":-17,"x_max":492,"o":"m 492 363 l -17 218 l -17 384 l 275 467 l -17 550 l -17 714 l 492 569 l 492 363 z "},"?":{"ha":610,"x_min":-17,"x_max":559,"o":"m 322 729 q 271 783 322 783 l -17 783 l -17 946 l 406 946 q 559 798 559 945 l 559 526 q 407 393 559 394 l 373 393 q 322 339 322 393 l 322 241 l 85 241 l 85 407 q 235 556 85 556 l 271 556 q 322 610 322 557 l 322 729 m 322 -14 l 85 -14 l 85 200 l 322 200 l 322 -14 z "},"@":{"ha":814,"x_min":-17,"x_max":763,"o":"m 526 528 l 509 528 q 458 475 458 524 q 507 420 458 420 l 526 420 l 526 528 m 220 543 q 372 680 220 674 l 474 680 q 525 728 525 680 q 474 783 525 783 l 260 783 q 220 730 220 779 l 220 543 m 220 407 l 220 203 q 271 149 220 149 l 763 149 l 763 -14 l 135 -14 q -17 135 -17 -14 l -17 796 q 136 946 -17 946 l 509 945 l 610 945 q 763 796 763 945 l 763 258 l 372 258 q 220 407 220 258 z "},"A":{"ha":610,"x_min":-17,"x_max":560,"o":"m -17 -14 l -17 798 q 136 946 -17 945 l 407 946 q 560 796 559 946 l 559 -14 l 322 -14 l 322 258 l 220 258 l 220 -14 l -17 -14 m 322 420 l 322 729 q 271 783 321 783 q 220 729 220 783 l 220 420 l 322 420 z "},"B":{"ha":610,"x_min":-17,"x_max":560,"o":"m -17 946 l 408 946 q 559 797 559 946 l 560 610 q 521 475 560 480 q 559 340 559 469 l 559 136 q 408 -14 559 -14 l -17 -14 l -17 946 m 220 149 l 271 149 q 322 203 322 149 l 322 339 q 271 394 322 394 l 220 394 l 220 149 m 271 556 q 322 611 322 556 l 321 729 q 271 783 321 783 l 220 783 l 220 556 l 271 556 z "},"C":{"ha":610,"x_min":-17,"x_max":559,"o":"m 559 -14 l 135 -14 q -17 135 -17 -14 l -17 796 q 136 946 -17 946 l 559 945 l 559 783 l 271 783 q 220 730 220 783 l 220 203 q 271 149 220 149 l 559 149 l 559 -14 z "},"D":{"ha":610,"x_min":-17,"x_max":560,"o":"m -17 945 l 408 945 q 559 797 559 945 l 560 136 q 407 -14 559 -14 l -17 -14 l -17 945 m 271 149 q 322 203 322 149 l 322 729 q 271 783 321 783 l 220 783 l 220 149 l 271 149 z "},"E":{"ha":475,"x_min":-17,"x_max":425,"o":"m -17 797 q 136 945 -17 945 l 425 946 l 424 783 l 271 783 q 220 729 220 783 l 220 557 l 424 557 l 425 394 l 220 394 l 220 203 q 271 149 220 149 l 423 149 l 423 -14 l 136 -14 q -17 136 -17 -14 l -17 797 z "},"F":{"ha":475,"x_min":-17,"x_max":425,"o":"m -17 797 q 136 946 -17 946 l 425 946 l 424 783 l 271 783 q 220 729 220 783 l 220 556 l 425 556 l 425 394 l 220 394 l 220 -14 l -17 -14 l -17 797 z "},"G":{"ha":610,"x_min":-17,"x_max":559,"o":"m 559 -14 l 136 -14 q -17 136 -17 -14 l -16 797 l -16 798 q 136 946 -16 945 l 559 946 l 559 783 l 271 783 q 220 729 220 783 l 220 203 q 271 149 220 149 q 322 203 322 149 l 322 556 l 559 556 l 559 -14 z "},"H":{"ha":610,"x_min":-17,"x_max":560,"o":"m 220 945 l 220 557 l 322 557 l 321 946 l 559 946 l 560 -14 l 322 -14 l 322 393 l 220 393 l 220 -14 l -17 -14 l -17 945 l 220 945 z "},"I":{"ha":266,"x_min":-17,"x_max":220,"o":"m -17 945 l 220 945 l 220 -14 l -17 -14 l -17 945 z "},"J":{"ha":475,"x_min":-17,"x_max":425,"o":"m -17 -14 l -17 149 l 136 149 q 186 203 186 149 l 186 946 l 425 946 l 425 136 q 271 -14 424 -14 l -17 -14 z "},"K":{"ha":610,"x_min":-17,"x_max":559,"o":"m 220 946 l 220 539 l 271 539 q 322 594 322 539 l 322 946 l 559 946 l 559 659 q 524 475 559 481 q 559 338 559 469 l 559 -14 l 322 -14 l 322 338 q 271 393 321 393 l 220 393 l 220 -14 l -17 -14 l -17 946 l 220 946 z "},"L":{"ha":475,"x_min":-17,"x_max":432,"o":"m -17 946 l 220 946 l 220 149 l 432 149 l 351 -14 l -17 -14 l -17 946 z "},"M":{"ha":949,"x_min":-17,"x_max":899,"o":"m -17 -14 l -17 946 l 458 946 q 543 933 539 946 q 627 946 546 945 l 746 946 q 899 797 899 946 l 899 -14 l 662 -14 l 663 711 q 611 766 663 766 l 610 766 q 560 712 560 766 l 559 -14 l 322 -14 l 322 711 q 271 766 322 766 q 221 711 221 766 l 220 -14 l -17 -14 z "},"N":{"ha":610,"x_min":-17,"x_max":559,"o":"m -17 -14 l -17 946 l 407 946 q 559 798 559 946 l 559 -14 l 321 -14 l 321 729 q 271 783 321 783 q 220 729 220 783 l 220 -14 l -17 -14 z "},"O":{"ha":610,"x_min":-17,"x_max":560,"o":"m 408 946 q 560 797 560 946 l 560 135 q 407 -14 560 -14 l 136 -14 q -17 136 -17 -14 l -17 796 q 136 946 -17 945 l 408 946 m 271 149 l 272 149 q 322 203 322 149 l 322 729 q 271 783 322 783 q 220 729 220 783 l 220 203 q 271 149 220 149 z "},"P":{"ha":610,"x_min":-17,"x_max":559,"o":"m -17 946 l 408 946 q 559 797 559 945 l 559 543 q 407 393 559 394 l 220 393 l 220 -14 l -17 -14 l -17 946 m 321 610 l 321 729 q 271 783 321 783 l 220 783 l 220 557 l 271 557 q 321 610 321 557 z "},"Q":{"ha":610,"x_min":-17,"x_max":560,"o":"m 408 946 q 560 797 560 946 l 559 -81 l 322 -81 l 322 -14 l 136 -14 q -17 136 -17 -14 l -17 797 q 134 945 -17 945 l 136 945 l 408 946 m 271 149 q 322 203 322 149 l 322 729 q 271 783 322 783 q 220 730 220 783 l 220 203 q 270 149 220 149 l 271 149 z "},"R":{"ha":610,"x_min":-17,"x_max":560,"o":"m 271 556 q 322 611 322 556 l 321 729 q 271 783 321 783 l 220 783 l 220 556 l 271 556 m -17 -14 l -17 946 l 408 946 q 559 797 559 946 l 560 610 q 521 475 560 480 q 559 340 559 469 l 559 -14 l 322 -14 l 322 339 q 271 394 322 394 l 220 394 l 220 -14 l -17 -14 z "},"S":{"ha":610,"x_min":-17,"x_max":559,"o":"m -17 -14 l -17 149 l 273 149 q 321 203 321 149 l 322 338 q 270 393 321 389 l 140 393 q -17 543 -17 394 l -17 797 q 136 946 -17 946 l 559 946 l 559 783 l 271 783 q 220 730 220 783 l 220 593 q 271 545 220 545 l 408 545 q 559 408 559 539 l 559 136 q 408 -14 559 -14 l -17 -14 z "},"T":{"ha":543,"x_min":-17,"x_max":492,"o":"m 118 -14 l 118 783 l -17 783 l -17 946 l 492 946 l 492 783 l 356 783 l 356 -14 l 118 -14 z "},"U":{"ha":610,"x_min":-17,"x_max":559,"o":"m 220 946 l 220 204 q 271 149 220 150 q 321 204 321 149 l 322 946 l 559 946 l 559 136 q 407 -14 559 -14 l 135 -14 q -17 136 -17 -14 l -17 946 l 220 946 z "},"V":{"ha":610,"x_min":-17,"x_max":560,"o":"m 271 217 q 321 270 321 217 l 321 271 l 322 946 l 559 946 l 560 339 q 416 -14 559 200 l 125 -14 q -17 338 -17 200 l -17 946 l 220 946 l 220 269 q 270 217 220 217 l 271 217 z "},"W":{"ha":949,"x_min":-17,"x_max":899,"o":"m -17 946 l 220 946 l 220 203 q 271 149 220 149 q 322 203 322 149 l 322 946 l 559 946 l 559 203 q 610 149 560 149 q 661 203 661 149 l 661 946 l 899 946 l 899 136 q 746 -14 899 -14 l 532 -14 q 441 -1 444 -14 q 356 -14 438 -14 l 136 -14 q -17 136 -17 -14 l -17 946 z "},"X":{"ha":610,"x_min":-17,"x_max":560,"o":"m 220 946 l 220 610 q 271 556 220 556 q 321 609 321 556 l 321 946 l 560 946 l 560 661 q 524 475 560 481 q 559 340 559 469 l 559 -14 l 322 -14 l 322 338 q 271 394 322 393 q 220 338 220 394 l 220 -14 l -16 -14 l -17 339 q 16 475 -17 469 q -17 661 -17 482 l -17 946 l 220 946 z "},"Y":{"ha":610,"x_min":-17,"x_max":560,"o":"m 220 946 l 220 543 q 269 489 220 489 l 272 489 q 321 543 321 489 l 322 946 l 559 946 l 560 475 q 407 325 559 325 l 390 325 l 390 -14 l 153 -14 l 153 325 l 136 326 l 134 326 q -17 475 -17 326 l -17 946 l 220 946 z "},"Z":{"ha":543,"x_min":-17,"x_max":492,"o":"m 247 783 l -17 783 l -17 945 l 492 946 l 492 745 l 227 149 l 492 149 l 492 -14 l -17 -14 l -17 205 l 247 783 z "},"[":{"ha":407,"x_min":-17,"x_max":356,"o":"m 355 -149 l -17 -149 l -17 980 l 356 980 l 356 817 l 220 817 l 220 14 l 355 14 l 355 -149 z "},"\\":{"ha":610,"x_min":-22,"x_max":565,"o":"m 565 -14 l 326 -14 l -22 946 l 216 946 l 565 -14 z "},"]":{"ha":407,"x_min":-17,"x_max":356,"o":"m -16 14 l 119 14 l 119 817 l -17 817 l -17 980 l 356 980 l 356 -149 l -16 -149 l -16 14 z "},"^":{"ha":543,"x_min":-17,"x_max":492,"o":"m -17 1124 l 127 1268 l 347 1268 l 492 1124 l 492 987 l 330 987 l 262 1055 l 211 1055 l 144 987 l -17 987 l -17 1124 z "},"_":{"ha":610,"x_min":-17,"x_max":559,"o":"m 559 -301 l -17 -301 l -17 -139 l 559 -139 l 559 -301 z "},"`":{"ha":339,"x_min":-17,"x_max":288,"o":"m -17 1319 l 220 1319 l 220 1153 q 237 1133 220 1133 l 288 1133 l 288 970 l 136 970 q -17 1119 -16 970 l -17 1319 z "},"a":{"ha":610,"x_min":-17,"x_max":559,"o":"m 559 -14 l 135 -14 q -17 136 -17 -14 l -17 271 q 135 409 -17 403 l 271 409 q 321 457 321 409 q 271 511 321 511 l -17 511 l -17 674 l 407 674 q 559 525 559 674 l 559 -14 m 322 257 l 272 257 q 220 203 220 252 q 269 149 220 149 l 322 149 l 322 257 z "},"b":{"ha":610,"x_min":-17,"x_max":559,"o":"m -17 946 l 220 946 l 220 675 l 407 675 q 559 526 559 675 l 559 136 q 408 -14 559 -13 l -17 -14 l -17 946 m 321 458 q 271 512 321 512 l 220 512 l 220 149 l 271 149 q 321 203 321 149 l 321 458 z "},"c":{"ha":610,"x_min":-17,"x_max":560,"o":"m 559 -14 l 135 -14 q -17 135 -17 -14 l -16 526 q 136 675 -16 675 l 560 675 l 560 513 l 272 513 q 221 460 221 513 l 221 458 l 220 203 q 271 149 220 149 l 559 149 l 559 -14 z "},"d":{"ha":610,"x_min":-17,"x_max":559,"o":"m 559 -14 l 135 -14 q -17 136 -17 -13 l -17 526 q 136 675 -17 675 l 321 675 l 321 946 l 559 946 l 559 -14 m 220 458 l 220 203 q 271 149 220 149 l 321 149 l 321 512 l 271 512 q 220 458 220 512 z "},"e":{"ha":610,"x_min":-17,"x_max":559,"o":"m -17 526 q 136 675 -17 675 l 407 674 q 559 525 559 674 l 559 406 q 402 257 559 258 l 220 258 l 220 203 q 269 149 220 149 l 559 149 l 559 -14 l 135 -14 q -17 136 -17 -14 l -17 526 m 220 409 l 271 409 q 321 457 321 409 q 271 511 321 511 q 220 460 220 511 l 220 409 z "},"f":{"ha":475,"x_min":-17,"x_max":425,"o":"m 85 797 q 238 946 85 946 l 425 946 l 425 783 l 374 783 q 322 729 323 783 l 322 675 l 424 675 l 425 512 l 322 512 l 322 -14 l 85 -14 l 85 511 l -16 511 l -17 675 l 85 675 l 85 797 z "},"g":{"ha":610,"x_min":-17,"x_max":559,"o":"m 559 -136 q 407 -285 559 -285 l 186 -285 l 186 -122 l 271 -122 q 322 -68 322 -122 l 322 -14 l 136 -14 q -17 136 -17 -13 l -17 526 q 135 675 -17 674 l 559 675 l 559 -136 m 220 203 q 271 150 220 150 l 321 150 l 321 512 l 271 512 q 220 458 220 512 l 220 203 z "},"h":{"ha":610,"x_min":-17,"x_max":559,"o":"m -17 -14 l -17 946 l 220 946 l 220 675 l 407 675 q 559 526 559 675 l 559 -14 l 322 -14 l 321 458 q 271 512 321 512 l 220 512 l 220 -14 l -17 -14 z "},"i":{"ha":271,"x_min":-17,"x_max":220,"o":"m -17 -14 l -17 675 l 220 675 l 220 -14 l -17 -14 m -17 946 l 220 946 l 220 715 l -17 715 l -17 946 z "},"j":{"ha":271,"x_min":-170,"x_max":220,"o":"m -17 675 l 220 675 l 220 -136 q 68 -285 220 -285 l -170 -285 l -170 -122 l -68 -122 q -18 -68 -18 -122 l -18 0 l -17 675 m -17 946 l 220 946 l 220 715 l -17 715 l -17 946 z "},"k":{"ha":610,"x_min":-17,"x_max":560,"o":"m 220 945 l 220 420 l 271 420 q 321 473 321 420 l 321 675 l 560 675 l 560 526 q 524 339 560 345 q 559 205 559 333 l 559 -14 l 322 -14 l 322 203 q 271 258 322 258 l 220 257 l 220 -14 l -17 -14 l -17 945 l 220 945 z "},"l":{"ha":266,"x_min":-17,"x_max":220,"o":"m -17 946 l 220 946 l 220 -14 l -17 -14 l -17 946 z "},"m":{"ha":949,"x_min":-17,"x_max":899,"o":"m -17 -14 l -17 675 l 458 675 q 543 662 539 675 q 627 675 546 674 l 746 675 q 899 526 899 675 l 899 -14 l 662 -14 l 663 440 q 611 494 663 494 l 610 494 q 560 441 560 494 l 559 -14 l 322 -14 l 322 440 q 271 495 322 494 q 221 440 221 494 l 220 -14 l -17 -14 z "},"n":{"ha":610,"x_min":-17,"x_max":559,"o":"m -17 -14 l -17 675 l 407 675 q 559 527 559 675 l 559 -14 l 321 -14 l 321 458 q 271 512 321 512 q 220 458 220 512 l 220 -14 l -17 -14 z "},"o":{"ha":610,"x_min":-18,"x_max":560,"o":"m 407 675 q 559 526 559 675 l 560 135 q 407 -14 560 -14 l 136 -14 q -17 136 -17 -14 l -18 525 q 135 675 -18 673 l 407 675 m 271 149 l 272 149 q 322 203 322 149 l 321 458 q 271 512 321 512 q 220 458 220 512 l 220 203 q 271 149 220 149 z "},"p":{"ha":610,"x_min":-17,"x_max":559,"o":"m -17 675 l 408 675 q 559 526 559 674 l 559 136 q 407 -14 559 -13 l 220 -14 l 220 -285 l -17 -285 l -17 675 m 321 203 l 321 458 q 271 512 321 512 l 220 512 l 220 150 l 271 150 q 321 203 321 150 z "},"q":{"ha":610,"x_min":-17,"x_max":559,"o":"m 559 -285 l 321 -285 l 321 -14 l 136 -14 q -17 136 -17 -13 l -17 526 q 135 675 -17 674 l 559 675 l 559 -285 m 220 203 q 271 150 220 150 l 321 150 l 321 512 l 271 512 q 220 458 220 512 l 220 203 z "},"r":{"ha":610,"x_min":-17,"x_max":559,"o":"m -17 -14 l -17 675 l 407 675 q 559 527 559 675 l 559 517 l 321 437 q 271 512 321 512 q 220 458 220 512 l 220 -14 l -17 -14 z "},"s":{"ha":610,"x_min":-17,"x_max":559,"o":"m -17 -14 l -17 149 l 273 149 q 321 203 321 149 q 270 257 321 252 l 140 257 q -17 406 -17 258 l -17 525 q 136 674 -17 674 l 559 674 l 559 511 l 271 511 q 220 457 220 511 q 271 409 220 409 l 408 409 q 559 271 559 403 l 559 136 q 408 -14 559 -14 l -17 -14 z "},"t":{"ha":475,"x_min":-17,"x_max":425,"o":"m 85 511 l -17 513 l -17 675 l 85 675 l 85 810 l 322 810 l 322 675 l 424 675 l 425 513 l 323 513 l 323 203 q 374 149 323 149 l 425 149 l 425 -14 l 239 -14 q 85 136 86 -14 l 85 511 z "},"u":{"ha":610,"x_min":-17,"x_max":559,"o":"m 220 675 l 220 238 q 271 183 220 184 q 322 238 322 183 l 322 675 l 559 675 l 559 136 q 407 -14 559 -14 l 135 -14 q -17 136 -17 -14 l -17 675 l 220 675 z "},"v":{"ha":610,"x_min":-17,"x_max":560,"o":"m 271 217 q 321 270 321 217 l 321 271 l 322 675 l 559 675 l 560 339 q 416 -14 559 200 l 125 -14 q -17 338 -17 200 l -17 675 l 220 675 l 220 269 q 270 217 220 217 l 271 217 z "},"w":{"ha":949,"x_min":-17,"x_max":899,"o":"m -17 675 l 220 675 l 220 203 q 271 149 220 149 q 322 203 322 149 l 322 675 l 559 675 l 559 203 q 610 149 560 149 q 661 203 661 149 l 661 675 l 899 675 l 899 136 q 746 -14 899 -14 l 532 -14 q 441 -1 444 -14 q 356 -14 438 -14 l 136 -14 q -17 136 -17 -14 l -17 675 z "},"x":{"ha":610,"x_min":-17,"x_max":560,"o":"m 220 675 l 220 475 q 271 420 220 420 q 321 473 321 420 l 321 675 l 560 675 l 560 526 q 524 339 560 345 q 559 205 559 333 l 559 -14 l 322 -14 l 322 203 q 271 258 322 258 q 220 203 220 258 l 220 -14 l -17 -14 l -17 203 q 16 339 -17 333 q -17 526 -17 347 l -17 675 l 220 675 z "},"y":{"ha":610,"x_min":-17,"x_max":559,"o":"m 323 675 l 559 675 l 559 -136 q 408 -285 559 -285 l 170 -285 l 170 -122 l 271 -122 q 321 -68 321 -122 l 321 -14 l 136 -14 q -17 136 -17 -13 l -17 675 l 220 675 l 220 203 q 271 149 220 150 l 322 149 l 323 675 z "},"z":{"ha":543,"x_min":-17,"x_max":492,"o":"m 271 512 l -17 512 l -17 675 l 492 675 l 492 472 l 203 149 l 492 149 l 492 -14 l -17 -14 l -17 208 l 271 512 z "},"{":{"ha":543,"x_min":-16,"x_max":492,"o":"m 119 866 q 288 1014 119 1014 l 492 1014 l 492 851 l 406 850 l 405 850 q 356 797 357 850 l 356 610 q 315 475 356 480 q 357 338 357 469 l 356 67 q 406 14 356 14 l 492 14 l 492 -150 l 288 -150 q 119 -2 119 -149 l 119 -1 l 119 338 q 69 393 119 393 l 68 393 l -16 393 l -16 557 l 68 556 l 70 556 q 119 610 119 556 l 119 866 z "},"|":{"ha":271,"x_min":-17,"x_max":220,"o":"m -16 1013 l 220 1013 l 220 -149 l -17 -149 l -16 1013 z "},"}":{"ha":543,"x_min":-16,"x_max":492,"o":"m 357 610 q 406 556 357 556 l 407 556 l 492 557 l 492 393 l 408 393 l 406 393 q 356 338 357 393 l 357 -1 l 357 -2 q 187 -150 357 -149 l -16 -150 l -16 14 l 68 14 q 119 67 119 14 l 118 338 q 159 475 118 469 q 119 610 119 480 l 119 797 q 70 850 119 850 l 68 850 l -16 851 l -16 1014 l 188 1014 q 357 866 357 1014 l 357 610 z "},"~":{"ha":610,"x_min":-17,"x_max":559,"o":"m 559 1259 l 559 1080 q 457 1005 503 1023 q 373 987 411 987 q 267 1021 334 987 q 170 1055 199 1055 q 101 1039 140 1055 q -17 945 62 1023 l -17 1124 q 86 1199 40 1181 q 170 1217 132 1217 q 277 1175 209 1217 q 373 1133 345 1133 q 441 1156 401 1133 q 559 1259 480 1179 z "},"¡":{"ha":271,"x_min":-17,"x_max":220,"o":"m 220 -14 l -17 -14 l -17 692 l 220 692 l 220 -14 m -17 946 l 220 946 l 220 732 l -17 732 l -17 946 z "},"¢":{"ha":610,"x_min":-17,"x_max":560,"o":"m 424 54 l 424 -14 l 186 -14 l 186 54 l 135 54 q -17 203 -17 54 l -16 593 q 136 743 -16 743 l 186 743 l 186 810 l 424 810 l 424 743 l 560 743 l 560 581 l 272 581 q 221 528 221 581 l 221 526 l 220 271 q 271 217 220 217 l 559 216 l 559 54 l 424 54 z "},"£":{"ha":644,"x_min":-17,"x_max":602,"o":"m 85 149 l 85 511 l -16 511 l -17 675 l 85 675 l 85 797 q 238 946 85 946 l 492 946 l 492 783 l 374 783 q 322 729 323 783 l 322 675 l 424 675 l 425 512 l 322 512 l 322 149 l 602 149 l 520 -14 l -17 -14 l -17 149 l 85 149 z "},"¤":{"ha":610,"x_min":-16,"x_max":562,"o":"m 273 336 l 274 336 q 324 390 324 336 l 323 576 q 273 631 323 631 q 222 576 222 631 l 222 390 q 273 336 222 336 m 222 173 l 222 -14 l -14 -14 l -16 339 q 18 475 -16 469 q -16 661 -16 482 l -16 946 l 222 946 l 222 793 l 323 793 l 323 946 l 562 946 l 562 661 q 526 475 562 481 q 561 340 561 469 l 561 -14 l 323 -14 l 323 173 l 222 173 z "},"¥":{"ha":610,"x_min":-17,"x_max":560,"o":"m 17 352 q -17 475 -17 356 l -17 946 l 220 946 l 220 543 q 269 489 220 489 l 272 489 q 321 543 321 489 l 322 946 l 559 946 l 560 475 q 526 352 559 352 l 526 190 l 390 190 l 390 182 l 526 182 l 526 20 l 390 20 l 390 -14 l 153 -14 l 153 20 l 17 20 l 17 182 l 153 182 l 153 190 l 17 190 l 17 352 z "},"¦":{"ha":688,"x_min":273,"x_max":415,"o":"m 273 265 l 415 265 l 415 -297 l 273 -297 l 273 265 m 273 1084 l 415 1084 l 415 522 l 273 522 l 273 1084 z "},"§":{"ha":688,"x_min":98,"x_max":589,"o":"m 468 359 l 467 359 q 464 389 465 381 q 393 467 450 425 q 318 484 359 484 q 245 458 273 484 q 218 387 218 432 q 372 233 218 311 q 422 262 398 240 q 468 359 465 300 m 300 -296 q 185 -283 255 -295 q 112 -243 112 -271 l 112 -98 l 180 -98 q 229 -191 183 -160 q 316 -221 271 -218 q 429 -179 385 -218 q 473 -76 473 -140 q 267 100 473 1 q 142 198 180 145 q 104 324 104 250 q 169 493 104 429 q 251 547 218 541 l 261 542 q 136 640 174 587 q 98 766 98 692 q 163 936 98 871 q 320 999 223 994 q 334 1000 326 1000 l 336 1000 q 456 987 382 1000 q 529 947 529 975 l 529 802 l 461 802 q 412 895 458 864 q 321 926 369 923 l 312 926 q 239 900 267 926 q 212 829 212 874 q 398 659 212 747 q 543 556 503 612 q 583 422 583 501 q 511 222 583 302 q 463 187 476 194 q 550 115 516 159 q 589 -19 589 59 q 517 -220 589 -139 q 300 -296 428 -293 z "},"¨":{"ha":610,"x_min":-17,"x_max":559,"o":"m 220 1004 l -17 1004 l -17 1217 l 220 1217 l 220 1004 m 559 1004 l 322 1004 l 322 1217 l 559 1217 l 559 1004 z "},"©":{"ha":576,"x_min":0,"x_max":509,"o":"m 390 390 l 186 390 q 119 457 119 390 l 119 779 q 186 847 119 847 l 390 847 l 390 779 l 254 779 q 220 746 220 779 l 220 491 q 254 458 220 458 l 390 457 l 390 390 m 441 932 q 509 865 509 932 l 509 373 q 441 306 509 306 l 68 306 q 0 374 0 306 l 0 865 q 68 932 0 932 l 441 932 m 136 374 l 374 374 q 407 408 407 374 l 407 831 q 373 865 407 865 l 136 865 q 102 831 102 865 l 102 391 q 136 374 102 374 z "},"ª":{"ha":1119,"x_min":0,"x_max":1017,"o":"m 136 0 q 0 136 0 0 l 0 882 q 136 1017 0 1017 l 882 1017 q 1017 882 1017 1017 l 1017 136 q 882 0 1017 0 l 136 0 m 882 17 q 1000 136 1000 17 l 1000 882 q 882 1000 1000 1000 l 136 1000 q 17 882 18 1000 l 17 136 q 136 17 18 17 l 882 17 z "},"«":{"ha":1119,"x_min":0,"x_max":1017,"o":"m 136 0 q 0 136 0 0 l 0 882 q 136 1017 0 1017 l 882 1017 q 1017 882 1017 1017 l 1017 136 q 882 0 1017 0 l 136 0 m 882 17 q 1000 136 1000 17 l 1000 882 q 882 1000 1000 1000 l 136 1000 q 17 882 18 1000 l 17 136 q 136 17 18 17 l 882 17 z "},"¬":{"ha":1119,"x_min":0,"x_max":1017,"o":"m 136 0 q 0 136 0 0 l 0 882 q 136 1017 0 1017 l 882 1017 q 1017 882 1017 1017 l 1017 136 q 882 0 1017 0 l 136 0 m 882 17 q 1000 136 1000 17 l 1000 882 q 882 1000 1000 1000 l 136 1000 q 17 882 18 1000 l 17 136 q 136 17 18 17 l 882 17 z "},"®":{"ha":576,"x_min":0,"x_max":509,"o":"m 254 653 q 288 687 288 653 l 288 746 q 254 780 288 780 l 220 780 l 220 653 l 254 653 m 119 391 l 119 848 l 323 848 q 390 780 390 848 l 391 687 q 331 619 391 627 q 390 552 390 610 l 390 391 l 288 391 l 288 551 q 254 585 288 585 l 220 585 l 220 391 l 119 391 m 441 932 q 509 865 509 932 l 509 373 q 441 306 509 306 l 68 306 q 0 374 0 306 l 0 865 q 68 932 0 932 l 441 932 m 136 374 l 374 374 q 407 408 407 374 l 407 831 q 373 865 407 865 l 136 865 q 102 831 102 865 l 102 391 q 136 374 102 374 z "},"¯":{"ha":1119,"x_min":0,"x_max":1017,"o":"m 136 0 q 0 136 0 0 l 0 882 q 136 1017 0 1017 l 882 1017 q 1017 882 1017 1017 l 1017 136 q 882 0 1017 0 l 136 0 m 882 17 q 1000 136 1000 17 l 1000 882 q 882 1000 1000 1000 l 136 1000 q 17 882 18 1000 l 17 136 q 136 17 18 17 l 882 17 z "},"°":{"ha":457,"x_min":24,"x_max":435,"o":"m 230 917 q 142 880 180 917 q 105 789 105 843 q 142 698 105 734 q 230 662 179 662 q 317 698 281 662 q 353 789 353 734 q 317 880 353 843 q 230 917 280 917 m 230 991 q 375 932 316 991 q 435 789 435 872 q 375 647 435 707 q 229 587 315 587 q 82 647 141 587 q 24 789 24 706 q 83 932 24 873 q 230 991 143 991 z "},"±":{"ha":543,"x_min":-17,"x_max":492,"o":"m -17 657 l 119 658 l 119 793 l 356 793 l 356 657 l 492 658 l 492 495 l 356 494 l 356 359 l 119 359 l 119 495 l -17 494 l -17 657 m -17 318 l 492 318 l 492 156 l -17 156 l -17 318 z "},"²":{"ha":1119,"x_min":0,"x_max":1017,"o":"m 136 0 q 0 136 0 0 l 0 882 q 136 1017 0 1017 l 882 1017 q 1017 882 1017 1017 l 1017 136 q 882 0 1017 0 l 136 0 m 882 17 q 1000 136 1000 17 l 1000 882 q 882 1000 1000 1000 l 136 1000 q 17 882 18 1000 l 17 136 q 136 17 18 17 l 882 17 z "},"³":{"ha":1119,"x_min":0,"x_max":1017,"o":"m 136 0 q 0 136 0 0 l 0 882 q 136 1017 0 1017 l 882 1017 q 1017 882 1017 1017 l 1017 136 q 882 0 1017 0 l 136 0 m 882 17 q 1000 136 1000 17 l 1000 882 q 882 1000 1000 1000 l 136 1000 q 17 882 18 1000 l 17 136 q 136 17 18 17 l 882 17 z "},"´":{"ha":339,"x_min":-17,"x_max":288,"o":"m 288 1119 q 136 970 288 970 l -17 970 l -17 1133 l 34 1133 q 51 1153 51 1133 l 51 1319 l 288 1319 l 288 1119 z "},"µ":{"ha":610,"x_min":-17,"x_max":559,"o":"m 321 361 l 322 361 l 322 675 l 559 674 l 559 136 q 407 -14 559 -13 l 220 -14 l 220 -285 l -17 -285 l -17 675 l 220 675 l 220 150 l 271 150 q 321 203 321 150 l 321 361 z "},"¶":{"ha":694,"x_min":46,"x_max":647,"o":"m 647 987 l 647 912 l 561 912 l 561 -14 l 471 -14 l 471 912 l 393 912 l 393 -14 l 302 -14 l 302 488 q 119 561 193 493 q 46 736 46 629 q 124 917 46 848 q 330 987 201 987 l 647 987 z "},"·":{"ha":271,"x_min":-17,"x_max":220,"o":"m 220 241 l -17 241 l -17 454 l 220 454 l 220 241 z "},"∙":{"ha":271,"x_min":-17,"x_max":220,"o":"m 220 241 l -17 241 l -17 454 l 220 454 l 220 241 z "},"¸":{"ha":339,"x_min":-17,"x_max":288,"o":"m 288 -136 q 136 -285 288 -285 l -17 -285 l -17 -122 l 34 -122 q 51 -102 51 -122 l 51 14 l 288 14 l 288 -136 z "},"¹":{"ha":1119,"x_min":0,"x_max":1017,"o":"m 136 0 q 0 136 0 0 l 0 882 q 136 1017 0 1017 l 882 1017 q 1017 882 1017 1017 l 1017 136 q 882 0 1017 0 l 136 0 m 882 17 q 1000 136 1000 17 l 1000 882 q 882 1000 1000 1000 l 136 1000 q 17 882 18 1000 l 17 136 q 136 17 18 17 l 882 17 z "},"º":{"ha":1119,"x_min":0,"x_max":1017,"o":"m 136 0 q 0 136 0 0 l 0 882 q 136 1017 0 1017 l 882 1017 q 1017 882 1017 1017 l 1017 136 q 882 0 1017 0 l 136 0 m 882 17 q 1000 136 1000 17 l 1000 882 q 882 1000 1000 1000 l 136 1000 q 17 882 18 1000 l 17 136 q 136 17 18 17 l 882 17 z "},"»":{"ha":1119,"x_min":0,"x_max":1017,"o":"m 136 0 q 0 136 0 0 l 0 882 q 136 1017 0 1017 l 882 1017 q 1017 882 1017 1017 l 1017 136 q 882 0 1017 0 l 136 0 m 882 17 q 1000 136 1000 17 l 1000 882 q 882 1000 1000 1000 l 136 1000 q 17 882 18 1000 l 17 136 q 136 17 18 17 l 882 17 z "},"¼":{"ha":1119,"x_min":0,"x_max":1017,"o":"m 136 0 q 0 136 0 0 l 0 882 q 136 1017 0 1017 l 882 1017 q 1017 882 1017 1017 l 1017 136 q 882 0 1017 0 l 136 0 m 882 17 q 1000 136 1000 17 l 1000 882 q 882 1000 1000 1000 l 136 1000 q 17 882 18 1000 l 17 136 q 136 17 18 17 l 882 17 z "},"½":{"ha":1119,"x_min":0,"x_max":1017,"o":"m 136 0 q 0 136 0 0 l 0 882 q 136 1017 0 1017 l 882 1017 q 1017 882 1017 1017 l 1017 136 q 882 0 1017 0 l 136 0 m 882 17 q 1000 136 1000 17 l 1000 882 q 882 1000 1000 1000 l 136 1000 q 17 882 18 1000 l 17 136 q 136 17 18 17 l 882 17 z "},"¾":{"ha":1119,"x_min":0,"x_max":1017,"o":"m 136 0 q 0 136 0 0 l 0 882 q 136 1017 0 1017 l 882 1017 q 1017 882 1017 1017 l 1017 136 q 882 0 1017 0 l 136 0 m 882 17 q 1000 136 1000 17 l 1000 882 q 882 1000 1000 1000 l 136 1000 q 17 882 18 1000 l 17 136 q 136 17 18 17 l 882 17 z "},"¿":{"ha":610,"x_min":-17,"x_max":559,"o":"m 220 203 q 271 149 220 149 l 559 149 l 559 -14 l 136 -14 q -17 134 -17 -13 l -17 406 q 136 539 -17 538 l 170 539 q 220 593 220 539 l 220 692 l 458 692 l 458 526 q 307 376 458 376 l 271 376 q 220 322 220 376 l 220 203 m 220 946 l 458 946 l 458 732 l 220 732 l 220 946 z "},"À":{"ha":610,"x_min":-17,"x_max":560,"o":"m -17 -14 l -17 798 q 136 946 -17 945 l 407 946 q 560 796 559 946 l 559 -14 l 322 -14 l 322 258 l 220 258 l 220 -14 l -17 -14 m 322 420 l 322 729 q 271 783 321 783 q 220 729 220 783 l 220 420 l 322 420 m 119 1319 l 356 1319 l 356 1153 q 373 1133 356 1133 l 424 1133 l 424 970 l 271 970 q 119 1119 119 970 l 119 1319 z "},"Á":{"ha":610,"x_min":-17,"x_max":560,"o":"m -17 -14 l -17 798 q 136 946 -17 945 l 407 946 q 560 796 559 946 l 559 -14 l 322 -14 l 322 258 l 220 258 l 220 -14 l -17 -14 m 322 420 l 322 729 q 271 783 321 783 q 220 729 220 783 l 220 420 l 322 420 m 424 1119 q 271 970 423 970 l 119 970 l 119 1133 l 170 1133 q 186 1153 186 1133 l 186 1319 l 424 1319 l 424 1119 z "},"Â":{"ha":610,"x_min":-17,"x_max":560,"o":"m -17 -14 l -17 798 q 136 946 -17 945 l 407 946 q 560 796 559 946 l 559 -14 l 322 -14 l 322 258 l 220 258 l 220 -14 l -17 -14 m 322 420 l 322 729 q 271 783 321 783 q 220 729 220 783 l 220 420 l 322 420 m 17 1124 l 161 1268 l 380 1268 l 526 1124 l 526 987 l 364 987 l 296 1055 l 245 1055 l 178 987 l 17 987 l 17 1124 z "},"Ã":{"ha":610,"x_min":-17,"x_max":560,"o":"m -17 -14 l -17 798 q 136 946 -17 945 l 407 946 q 560 796 559 946 l 559 -14 l 322 -14 l 322 258 l 220 258 l 220 -14 l -17 -14 m 322 420 l 322 729 q 271 783 321 783 q 220 729 220 783 l 220 420 l 322 420 m 559 1259 l 559 1080 q 457 1005 503 1023 q 373 987 411 987 q 267 1021 334 987 q 170 1055 199 1055 q 101 1039 140 1055 q -17 945 62 1023 l -17 1124 q 86 1199 40 1181 q 170 1217 132 1217 q 277 1175 209 1217 q 373 1133 345 1133 q 441 1156 401 1133 q 559 1259 480 1179 z "},"Ä":{"ha":610,"x_min":-17,"x_max":560,"o":"m -17 -14 l -17 798 q 136 946 -17 945 l 407 946 q 560 796 559 946 l 559 -14 l 322 -14 l 322 258 l 220 258 l 220 -14 l -17 -14 m 322 420 l 322 729 q 271 783 321 783 q 220 729 220 783 l 220 420 l 322 420 m 220 1004 l -17 1004 l -17 1217 l 220 1217 l 220 1004 m 559 1004 l 322 1004 l 322 1217 l 559 1217 l 559 1004 z "},"Å":{"ha":610,"x_min":-17,"x_max":560,"o":"m -17 -14 l -17 798 q 136 946 -17 945 l 407 946 q 560 796 559 946 l 559 -14 l 322 -14 l 322 258 l 220 258 l 220 -14 l -17 -14 m 322 420 l 322 729 q 271 783 321 783 q 220 729 220 783 l 220 420 l 322 420 m 390 1004 l 153 1004 l 153 1217 l 390 1217 l 390 1004 z "},"Æ":{"ha":814,"x_min":-17,"x_max":764,"o":"m 322 258 l 220 258 l 220 -14 l -17 -14 l -17 798 q 136 946 -17 945 l 764 946 l 763 783 l 610 783 q 560 745 566 783 l 560 557 l 763 557 l 764 394 l 560 394 l 559 197 q 610 149 562 149 l 762 149 l 762 -14 l 322 -14 l 322 258 m 322 729 q 271 783 321 783 q 220 729 220 783 l 220 420 l 322 420 l 322 729 z "},"Ç":{"ha":610,"x_min":-17,"x_max":559,"o":"m 220 -14 l 135 -14 q -17 135 -17 -14 l -17 796 q 136 946 -17 946 l 559 945 l 559 783 l 271 783 q 220 730 220 783 l 220 203 q 271 149 220 149 l 559 149 l 559 -14 l 458 -14 l 458 -136 q 305 -285 457 -285 l 153 -285 l 153 -122 l 203 -122 q 220 -102 220 -122 l 220 -14 z "},"È":{"ha":475,"x_min":-17,"x_max":425,"o":"m -17 797 q 136 945 -17 945 l 425 946 l 424 783 l 271 783 q 220 729 220 783 l 220 557 l 424 557 l 425 394 l 220 394 l 220 203 q 271 149 220 149 l 423 149 l 423 -14 l 136 -14 q -17 136 -17 -14 l -17 797 m 51 1319 l 288 1319 l 288 1153 q 305 1133 288 1133 l 356 1133 l 356 970 l 203 970 q 51 1119 52 970 l 51 1319 z "},"É":{"ha":475,"x_min":-17,"x_max":425,"o":"m -17 797 q 136 945 -17 945 l 425 946 l 424 783 l 271 783 q 220 729 220 783 l 220 557 l 424 557 l 425 394 l 220 394 l 220 203 q 271 149 220 149 l 423 149 l 423 -14 l 136 -14 q -17 136 -17 -14 l -17 797 m 356 1119 q 203 970 355 970 l 51 970 l 51 1133 l 102 1133 q 119 1153 119 1133 l 119 1319 l 356 1319 l 356 1119 z "},"Ê":{"ha":475,"x_min":-51,"x_max":458,"o":"m -17 797 q 136 945 -17 945 l 425 946 l 424 783 l 271 783 q 220 729 220 783 l 220 557 l 424 557 l 425 394 l 220 394 l 220 203 q 271 149 220 149 l 423 149 l 423 -14 l 136 -14 q -17 136 -17 -14 l -17 797 m -51 1124 l 94 1268 l 313 1268 l 458 1124 l 458 987 l 296 987 l 229 1055 l 177 1055 l 110 987 l -51 987 l -51 1124 z "},"Ë":{"ha":475,"x_min":-85,"x_max":492,"o":"m -17 797 q 136 945 -17 945 l 425 946 l 424 783 l 271 783 q 220 729 220 783 l 220 557 l 424 557 l 425 394 l 220 394 l 220 203 q 271 149 220 149 l 423 149 l 423 -14 l 136 -14 q -17 136 -17 -14 l -17 797 m 153 1004 l -85 1004 l -85 1217 l 153 1217 l 153 1004 m 492 1004 l 254 1004 l 254 1217 l 492 1217 l 492 1004 z "},"Ì":{"ha":266,"x_min":-51,"x_max":254,"o":"m -17 945 l 220 945 l 220 -14 l -17 -14 l -17 945 m -51 1319 l 186 1319 l 186 1153 q 203 1133 186 1133 l 254 1133 l 254 970 l 102 970 q -51 1119 -50 970 l -51 1319 z "},"Í":{"ha":266,"x_min":-51,"x_max":254,"o":"m -17 945 l 220 945 l 220 -14 l -17 -14 l -17 945 m 254 1119 q 102 970 254 970 l -51 970 l -51 1133 l 0 1133 q 17 1153 17 1133 l 17 1319 l 254 1319 l 254 1119 z "},"Î":{"ha":266,"x_min":-153,"x_max":356,"o":"m -17 945 l 220 945 l 220 -14 l -17 -14 l -17 945 m -153 1124 l -8 1268 l 211 1268 l 356 1124 l 356 987 l 195 987 l 127 1055 l 75 1055 l 8 987 l -153 987 l -153 1124 z "},"Ï":{"ha":266,"x_min":-186,"x_max":390,"o":"m -17 945 l 220 945 l 220 -14 l -17 -14 l -17 945 m 51 1004 l -186 1004 l -186 1217 l 51 1217 l 51 1004 m 390 1004 l 153 1004 l 153 1217 l 390 1217 l 390 1004 z "},"Ð":{"ha":712,"x_min":-18,"x_max":661,"o":"m 321 393 l 321 149 l 372 149 q 423 203 423 149 l 423 729 q 372 783 422 783 l 321 783 l 321 555 l 390 555 l 389 393 l 321 393 m 84 555 l 84 945 l 509 945 q 661 797 661 945 l 661 136 q 508 -14 661 -14 l 84 -14 l 84 393 l -18 393 l -18 555 l 84 555 z "},"Ñ":{"ha":610,"x_min":-17,"x_max":559,"o":"m -16 946 l 407 946 q 559 798 559 946 l 559 -14 l 321 -14 l 321 729 q 271 783 321 783 q 220 729 220 783 l 220 -14 l -17 -14 l -17 1124 q 86 1199 40 1181 q 170 1217 132 1217 q 277 1175 209 1217 q 373 1133 345 1133 q 441 1156 401 1133 q 559 1259 480 1179 l 559 1080 q 457 1005 503 1023 q 373 987 411 987 q 267 1021 334 987 q 170 1055 199 1055 q 101 1039 140 1055 q -16 946 62 1023 z "},"Ò":{"ha":610,"x_min":-17,"x_max":560,"o":"m 408 946 q 560 797 560 946 l 560 135 q 407 -14 560 -14 l 136 -14 q -17 136 -17 -14 l -17 796 q 136 946 -17 945 l 408 946 m 271 149 l 272 149 q 322 203 322 149 l 322 729 q 271 783 322 783 q 220 729 220 783 l 220 203 q 271 149 220 149 m 119 1319 l 356 1319 l 356 1153 q 373 1133 356 1133 l 424 1133 l 424 970 l 271 970 q 119 1119 119 970 l 119 1319 z "},"Ó":{"ha":610,"x_min":-17,"x_max":560,"o":"m 408 946 q 560 797 560 946 l 560 135 q 407 -14 560 -14 l 136 -14 q -17 136 -17 -14 l -17 796 q 136 946 -17 945 l 408 946 m 271 149 l 272 149 q 322 203 322 149 l 322 729 q 271 783 322 783 q 220 729 220 783 l 220 203 q 271 149 220 149 m 424 1119 q 271 970 423 970 l 119 970 l 119 1133 l 170 1133 q 186 1153 186 1133 l 186 1319 l 424 1319 l 424 1119 z "},"Ô":{"ha":610,"x_min":-17,"x_max":560,"o":"m 408 946 q 560 797 560 946 l 560 135 q 407 -14 560 -14 l 136 -14 q -17 136 -17 -14 l -17 796 q 136 946 -17 945 l 408 946 m 271 149 l 272 149 q 322 203 322 149 l 322 729 q 271 783 322 783 q 220 729 220 783 l 220 203 q 271 149 220 149 m 17 1124 l 161 1268 l 380 1268 l 526 1124 l 526 987 l 364 987 l 296 1055 l 245 1055 l 178 987 l 17 987 l 17 1124 z "},"Õ":{"ha":610,"x_min":-17,"x_max":560,"o":"m 408 946 q 560 797 560 946 l 560 135 q 407 -14 560 -14 l 136 -14 q -17 136 -17 -14 l -17 796 q 136 946 -17 945 l 408 946 m 271 149 l 272 149 q 322 203 322 149 l 322 729 q 271 783 322 783 q 220 729 220 783 l 220 203 q 271 149 220 149 m 559 1259 l 559 1080 q 457 1005 503 1023 q 373 987 411 987 q 267 1021 334 987 q 170 1055 199 1055 q 101 1039 140 1055 q -17 945 62 1023 l -17 1124 q 86 1199 40 1181 q 170 1217 132 1217 q 277 1175 209 1217 q 373 1133 345 1133 q 441 1156 401 1133 q 559 1259 480 1179 z "},"Ö":{"ha":610,"x_min":-17,"x_max":560,"o":"m 408 946 q 560 797 560 946 l 560 135 q 407 -14 560 -14 l 136 -14 q -17 136 -17 -14 l -17 796 q 136 946 -17 945 l 408 946 m 271 149 l 272 149 q 322 203 322 149 l 322 729 q 271 783 322 783 q 220 729 220 783 l 220 203 q 271 149 220 149 m 220 1004 l -17 1004 l -17 1217 l 220 1217 l 220 1004 m 559 1004 l 322 1004 l 322 1217 l 559 1217 l 559 1004 z "},"×":{"ha":610,"x_min":-17,"x_max":560,"o":"m 220 810 l 220 610 q 271 556 220 556 q 321 609 321 556 l 321 810 l 560 810 l 560 661 q 524 475 560 481 q 559 340 559 469 l 559 122 l 322 122 l 322 338 q 271 394 322 393 q 220 338 220 394 l 220 122 l -17 122 l -17 339 q 16 475 -17 469 q -17 661 -17 482 l -17 810 l 220 810 z "},"Ø":{"ha":610,"x_min":-17,"x_max":560,"o":"m 234 159 q 271 149 241 149 l 272 149 q 322 203 322 149 l 322 332 l 234 159 m 317 760 q 271 783 310 783 q 220 729 220 783 l 220 579 l 317 760 m 408 946 q 560 797 560 946 l 560 135 q 407 -14 560 -14 l 136 -14 q -17 136 -17 -14 l -17 796 q 136 946 -17 945 l 408 946 z "},"Ù":{"ha":610,"x_min":-17,"x_max":559,"o":"m 220 946 l 220 204 q 271 149 220 150 q 321 204 321 149 l 322 946 l 559 946 l 559 136 q 407 -14 559 -14 l 135 -14 q -17 136 -17 -14 l -17 946 l 220 946 m 119 1319 l 356 1319 l 356 1153 q 373 1133 356 1133 l 424 1133 l 424 970 l 271 970 q 119 1119 119 970 l 119 1319 z "},"Ú":{"ha":610,"x_min":-17,"x_max":559,"o":"m 220 946 l 220 204 q 271 149 220 150 q 321 204 321 149 l 322 946 l 559 946 l 559 136 q 407 -14 559 -14 l 135 -14 q -17 136 -17 -14 l -17 946 l 220 946 m 424 1119 q 271 970 423 970 l 119 970 l 119 1133 l 170 1133 q 186 1153 186 1133 l 186 1319 l 424 1319 l 424 1119 z "},"Û":{"ha":610,"x_min":-17,"x_max":559,"o":"m 220 946 l 220 204 q 271 149 220 150 q 321 204 321 149 l 322 946 l 559 946 l 559 136 q 407 -14 559 -14 l 135 -14 q -17 136 -17 -14 l -17 946 l 220 946 m 17 1124 l 161 1268 l 380 1268 l 526 1124 l 526 987 l 364 987 l 296 1055 l 245 1055 l 178 987 l 17 987 l 17 1124 z "},"Ü":{"ha":610,"x_min":-17,"x_max":559,"o":"m 220 946 l 220 204 q 271 149 220 150 q 321 204 321 149 l 322 946 l 559 946 l 559 136 q 407 -14 559 -14 l 135 -14 q -17 136 -17 -14 l -17 946 l 220 946 m 220 1004 l -17 1004 l -17 1217 l 220 1217 l 220 1004 m 559 1004 l 322 1004 l 322 1217 l 559 1217 l 559 1004 z "},"Ý":{"ha":610,"x_min":-17,"x_max":560,"o":"m 220 946 l 220 543 q 269 489 220 489 l 272 489 q 321 543 321 489 l 322 946 l 559 946 l 560 475 q 407 325 559 325 l 390 325 l 390 -14 l 153 -14 l 153 325 l 136 326 l 134 326 q -17 475 -17 326 l -17 946 l 220 946 m 424 1119 q 271 970 423 970 l 119 970 l 119 1133 l 170 1133 q 186 1153 186 1133 l 186 1319 l 424 1319 l 424 1119 z "},"Þ":{"ha":610,"x_min":-17,"x_max":560,"o":"m 220 810 l 408 810 q 559 662 559 810 l 560 271 q 407 122 559 122 l 220 122 l 220 -14 l -17 -14 l -17 946 l 220 946 l 220 810 m 220 285 l 271 285 q 322 338 322 285 l 322 594 q 271 648 321 648 l 220 648 l 220 285 z "},"ß":{"ha":610,"x_min":-17,"x_max":560,"o":"m -17 798 q 136 946 -17 946 l 407 946 q 559 798 559 945 l 559 610 q 519 475 559 481 q 560 339 560 469 l 559 136 q 408 -14 559 -14 l 254 -14 l 254 149 q 322 203 322 149 l 322 338 q 255 393 321 393 l 254 556 q 321 610 321 557 l 321 729 q 271 783 321 783 q 220 729 220 783 l 220 -14 l -17 -14 l -17 798 z "},"à":{"ha":610,"x_min":-17,"x_max":559,"o":"m 559 -14 l 135 -14 q -17 136 -17 -14 l -17 271 q 135 409 -17 403 l 271 409 q 321 457 321 409 q 271 511 321 511 l -17 511 l -17 674 l 407 674 q 559 525 559 674 l 559 -14 m 322 257 l 272 257 q 220 203 220 252 q 269 149 220 149 l 322 149 l 322 257 m 119 1031 l 356 1031 l 356 865 q 373 844 356 844 l 424 844 l 424 682 l 271 682 q 119 831 119 682 l 119 1031 z "},"á":{"ha":610,"x_min":-17,"x_max":559,"o":"m 559 -14 l 135 -14 q -17 136 -17 -14 l -17 271 q 135 409 -17 403 l 271 409 q 321 457 321 409 q 271 511 321 511 l -17 511 l -17 674 l 407 674 q 559 525 559 674 l 559 -14 m 322 257 l 272 257 q 220 203 220 252 q 269 149 220 149 l 322 149 l 322 257 m 424 831 q 271 682 423 682 l 119 682 l 119 844 l 170 844 q 186 865 186 844 l 186 1031 l 424 1031 l 424 831 z "},"â":{"ha":610,"x_min":-17,"x_max":559,"o":"m 559 -14 l 135 -14 q -17 136 -17 -14 l -17 271 q 135 409 -17 403 l 271 409 q 321 457 321 409 q 271 511 321 511 l -17 511 l -17 674 l 407 674 q 559 525 559 674 l 559 -14 m 322 257 l 272 257 q 220 203 220 252 q 269 149 220 149 l 322 149 l 322 257 m 17 819 l 161 963 l 380 963 l 526 819 l 526 682 l 364 682 l 296 749 l 245 749 l 178 682 l 17 682 l 17 819 z "},"ã":{"ha":610,"x_min":-17,"x_max":559,"o":"m 322 257 l 272 257 q 220 203 220 252 q 269 149 220 149 l 322 149 l 322 257 m -16 674 l 407 674 q 559 525 559 674 l 559 -14 l 135 -14 q -17 136 -17 -14 l -17 271 q 135 409 -17 403 l 271 409 q 321 457 321 409 q 271 511 321 511 l -17 511 l -17 852 q 86 928 40 909 q 170 946 132 946 q 277 904 209 946 q 373 861 345 861 q 441 885 401 861 q 559 988 480 908 l 559 809 q 457 734 503 752 q 373 715 411 715 q 267 749 334 715 q 170 783 199 783 q 101 768 140 783 q -16 674 62 752 z "},"ä":{"ha":610,"x_min":-17,"x_max":559,"o":"m 559 -14 l 135 -14 q -17 136 -17 -14 l -17 271 q 135 409 -17 403 l 271 409 q 321 457 321 409 q 271 511 321 511 l -17 511 l -17 674 l 407 674 q 559 525 559 674 l 559 -14 m 322 257 l 272 257 q 220 203 220 252 q 269 149 220 149 l 322 149 l 322 257 m 220 732 l -17 732 l -17 946 l 220 946 l 220 732 m 559 732 l 322 732 l 322 946 l 559 946 l 559 732 z "},"å":{"ha":610,"x_min":-17,"x_max":559,"o":"m 559 -14 l 135 -14 q -17 136 -17 -14 l -17 271 q 135 409 -17 403 l 271 409 q 321 457 321 409 q 271 511 321 511 l -17 511 l -17 674 l 407 674 q 559 525 559 674 l 559 -14 m 322 257 l 272 257 q 220 203 220 252 q 269 149 220 149 l 322 149 l 322 257 m 153 946 l 390 946 l 390 715 l 153 715 l 153 946 z "},"æ":{"ha":949,"x_min":-17,"x_max":899,"o":"m 135 -14 q -17 136 -17 -14 l -17 271 q 135 409 -17 403 l 271 409 q 321 457 321 409 q 271 511 321 511 l -17 511 l -17 674 l 746 674 q 899 525 899 674 l 899 406 q 741 257 899 258 l 559 258 l 559 203 q 608 149 559 149 l 899 149 l 899 -14 l 135 -14 m 559 409 l 610 409 q 661 457 661 409 q 610 511 661 511 q 559 460 559 511 l 559 409 m 322 257 l 272 257 q 220 203 220 252 q 269 149 220 149 l 322 149 l 322 257 z "},"ç":{"ha":610,"x_min":-17,"x_max":560,"o":"m 186 -14 l 135 -14 q -17 135 -17 -14 l -16 526 q 136 675 -16 675 l 560 675 l 560 513 l 272 513 q 221 460 221 513 l 221 458 l 220 203 q 271 149 220 149 l 559 149 l 559 -14 l 424 -14 l 424 -136 q 271 -285 423 -285 l 119 -285 l 119 -122 l 170 -122 q 186 -102 186 -122 l 186 -14 z "},"è":{"ha":610,"x_min":-17,"x_max":559,"o":"m -17 526 q 136 675 -17 675 l 407 674 q 559 525 559 674 l 559 406 q 402 257 559 258 l 220 258 l 220 203 q 269 149 220 149 l 559 149 l 559 -14 l 135 -14 q -17 136 -17 -14 l -17 526 m 220 409 l 271 409 q 321 457 321 409 q 271 511 321 511 q 220 460 220 511 l 220 409 m 119 1031 l 356 1031 l 356 865 q 373 844 356 844 l 424 844 l 424 682 l 271 682 q 119 831 119 682 l 119 1031 z "},"é":{"ha":610,"x_min":-17,"x_max":559,"o":"m -17 526 q 136 675 -17 675 l 407 674 q 559 525 559 674 l 559 406 q 402 257 559 258 l 220 258 l 220 203 q 269 149 220 149 l 559 149 l 559 -14 l 135 -14 q -17 136 -17 -14 l -17 526 m 220 409 l 271 409 q 321 457 321 409 q 271 511 321 511 q 220 460 220 511 l 220 409 m 424 831 q 271 682 423 682 l 119 682 l 119 844 l 170 844 q 186 865 186 844 l 186 1031 l 424 1031 l 424 831 z "},"ê":{"ha":610,"x_min":-17,"x_max":559,"o":"m -17 526 q 136 675 -17 675 l 407 674 q 559 525 559 674 l 559 406 q 402 257 559 258 l 220 258 l 220 203 q 269 149 220 149 l 559 149 l 559 -14 l 135 -14 q -17 136 -17 -14 l -17 526 m 220 409 l 271 409 q 321 457 321 409 q 271 511 321 511 q 220 460 220 511 l 220 409 m 17 819 l 161 963 l 380 963 l 526 819 l 526 682 l 364 682 l 296 749 l 245 749 l 178 682 l 17 682 l 17 819 z "},"ë":{"ha":610,"x_min":-17,"x_max":559,"o":"m -17 526 q 136 675 -17 675 l 407 674 q 559 525 559 674 l 559 406 q 402 257 559 258 l 220 258 l 220 203 q 269 149 220 149 l 559 149 l 559 -14 l 135 -14 q -17 136 -17 -14 l -17 526 m 220 409 l 271 409 q 321 457 321 409 q 271 511 321 511 q 220 460 220 511 l 220 409 m 220 732 l -17 732 l -17 946 l 220 946 l 220 732 m 559 732 l 322 732 l 322 946 l 559 946 l 559 732 z "},"ì":{"ha":271,"x_min":-51,"x_max":254,"o":"m -17 -14 l -17 675 l 220 675 l 220 -14 l -17 -14 m -51 1031 l 186 1031 l 186 865 q 203 844 186 844 l 254 844 l 254 682 l 102 682 q -51 831 -50 682 l -51 1031 z "},"í":{"ha":271,"x_min":-51,"x_max":254,"o":"m -17 -14 l -17 675 l 220 675 l 220 -14 l -17 -14 m 254 831 q 102 682 254 682 l -51 682 l -51 844 l 0 844 q 17 865 17 844 l 17 1031 l 254 1031 l 254 831 z "},"î":{"ha":271,"x_min":-153,"x_max":356,"o":"m -17 -14 l -17 675 l 220 675 l 220 -14 l -17 -14 m -153 819 l -8 963 l 211 963 l 356 819 l 356 682 l 195 682 l 127 749 l 75 749 l 8 682 l -153 682 l -153 819 z "},"ï":{"ha":271,"x_min":-186,"x_max":390,"o":"m -17 -14 l -17 675 l 220 675 l 220 -14 l -17 -14 m 51 732 l -186 732 l -186 946 l 51 946 l 51 732 m 390 732 l 153 732 l 153 946 l 390 946 l 390 732 z "},"ð":{"ha":610,"x_min":-17,"x_max":559,"o":"m 220 458 l 220 203 q 271 149 220 149 l 321 149 l 321 512 l 271 512 q 220 458 220 512 m 559 -14 l 135 -14 q -17 136 -17 -13 l -17 526 q 136 675 -17 675 l 322 675 l 322 763 q 305 783 322 783 l 254 783 l 254 946 l 407 946 q 559 797 559 946 l 559 -14 z "},"ñ":{"ha":610,"x_min":-17,"x_max":559,"o":"m -16 675 l 407 675 q 559 527 559 675 l 559 -14 l 321 -14 l 321 458 q 271 512 321 512 q 220 458 220 512 l 220 -14 l -17 -14 l -17 852 q 86 928 40 909 q 170 946 132 946 q 277 904 209 946 q 373 861 345 861 q 441 885 401 861 q 559 988 480 908 l 559 809 q 457 734 503 752 q 373 715 411 715 q 267 749 334 715 q 170 783 199 783 q 101 768 140 783 q -16 675 62 752 z "},"ò":{"ha":610,"x_min":-18,"x_max":560,"o":"m 407 675 q 559 526 559 675 l 560 135 q 407 -14 560 -14 l 136 -14 q -17 136 -17 -14 l -18 525 q 135 675 -18 673 l 407 675 m 271 149 l 272 149 q 322 203 322 149 l 321 458 q 271 512 321 512 q 220 458 220 512 l 220 203 q 271 149 220 149 m 119 1031 l 356 1031 l 356 865 q 373 844 356 844 l 424 844 l 424 682 l 271 682 q 119 831 119 682 l 119 1031 z "},"ó":{"ha":610,"x_min":-18,"x_max":560,"o":"m 407 675 q 559 526 559 675 l 560 135 q 407 -14 560 -14 l 136 -14 q -17 136 -17 -14 l -18 525 q 135 675 -18 673 l 407 675 m 271 149 l 272 149 q 322 203 322 149 l 321 458 q 271 512 321 512 q 220 458 220 512 l 220 203 q 271 149 220 149 m 424 831 q 271 682 423 682 l 119 682 l 119 844 l 170 844 q 186 865 186 844 l 186 1031 l 424 1031 l 424 831 z "},"ô":{"ha":610,"x_min":-18,"x_max":560,"o":"m 407 675 q 559 526 559 675 l 560 135 q 407 -14 560 -14 l 136 -14 q -17 136 -17 -14 l -18 525 q 135 675 -18 673 l 407 675 m 271 149 l 272 149 q 322 203 322 149 l 321 458 q 271 512 321 512 q 220 458 220 512 l 220 203 q 271 149 220 149 m 17 819 l 161 963 l 380 963 l 526 819 l 526 682 l 364 682 l 296 749 l 245 749 l 178 682 l 17 682 l 17 819 z "},"õ":{"ha":610,"x_min":-18,"x_max":560,"o":"m 407 675 q 559 526 559 675 l 560 135 q 407 -14 560 -14 l 136 -14 q -17 136 -17 -14 l -18 525 q 135 675 -18 673 l 407 675 m 271 149 l 272 149 q 322 203 322 149 l 321 458 q 271 512 321 512 q 220 458 220 512 l 220 203 q 271 149 220 149 m 559 988 l 559 809 q 457 734 503 752 q 373 715 411 715 q 267 749 334 715 q 170 783 199 783 q 101 768 140 783 q -17 673 62 752 l -17 852 q 86 928 40 909 q 170 946 132 946 q 277 904 209 946 q 373 861 345 861 q 441 885 401 861 q 559 988 480 908 z "},"ö":{"ha":610,"x_min":-18,"x_max":560,"o":"m 407 675 q 559 526 559 675 l 560 135 q 407 -14 560 -14 l 136 -14 q -17 136 -17 -14 l -18 525 q 135 675 -18 673 l 407 675 m 271 149 l 272 149 q 322 203 322 149 l 321 458 q 271 512 321 512 q 220 458 220 512 l 220 203 q 271 149 220 149 m 220 732 l -17 732 l -17 946 l 220 946 l 220 732 m 559 732 l 322 732 l 322 946 l 559 946 l 559 732 z "},"÷":{"ha":543,"x_min":-17,"x_max":492,"o":"m -17 556 l 492 556 l 492 394 l -17 394 l -17 556 m 356 139 l 119 139 l 119 353 l 356 353 l 356 139 m 356 597 l 119 597 l 119 810 l 356 810 l 356 597 z "},"ø":{"ha":610,"x_min":-18,"x_max":560,"o":"m -17 136 l -18 525 q 135 675 -18 673 l 407 675 q 559 526 559 675 l 560 135 q 407 -14 560 -14 l 136 -14 q -17 136 -17 -14 m 240 154 q 271 149 244 149 l 272 149 q 322 203 322 149 l 322 249 l 240 154 m 302 507 q 271 512 298 512 q 220 458 220 512 l 220 412 l 302 507 z "},"ù":{"ha":610,"x_min":-17,"x_max":559,"o":"m 220 675 l 220 238 q 271 183 220 184 q 322 238 322 183 l 322 675 l 559 675 l 559 136 q 407 -14 559 -14 l 135 -14 q -17 136 -17 -14 l -17 675 l 220 675 m 119 1031 l 356 1031 l 356 865 q 373 844 356 844 l 424 844 l 424 682 l 271 682 q 119 831 119 682 l 119 1031 z "},"ú":{"ha":610,"x_min":-17,"x_max":559,"o":"m 220 675 l 220 238 q 271 183 220 184 q 322 238 322 183 l 322 675 l 559 675 l 559 136 q 407 -14 559 -14 l 135 -14 q -17 136 -17 -14 l -17 675 l 220 675 m 424 831 q 271 682 423 682 l 119 682 l 119 844 l 170 844 q 186 865 186 844 l 186 1031 l 424 1031 l 424 831 z "},"û":{"ha":610,"x_min":-17,"x_max":559,"o":"m 220 675 l 220 238 q 271 183 220 184 q 322 238 322 183 l 322 675 l 559 675 l 559 136 q 407 -14 559 -14 l 135 -14 q -17 136 -17 -14 l -17 675 l 220 675 m 17 819 l 161 963 l 380 963 l 526 819 l 526 682 l 364 682 l 296 749 l 245 749 l 178 682 l 17 682 l 17 819 z "},"ü":{"ha":610,"x_min":-17,"x_max":559,"o":"m 220 675 l 220 238 q 271 183 220 184 q 322 238 322 183 l 322 675 l 559 675 l 559 136 q 407 -14 559 -14 l 135 -14 q -17 136 -17 -14 l -17 675 l 220 675 m 220 732 l -17 732 l -17 946 l 220 946 l 220 732 m 559 732 l 322 732 l 322 946 l 559 946 l 559 732 z "},"ý":{"ha":610,"x_min":-17,"x_max":559,"o":"m 323 675 l 559 675 l 559 -136 q 408 -285 559 -285 l 170 -285 l 170 -122 l 271 -122 q 321 -68 321 -122 l 321 -14 l 136 -14 q -17 136 -17 -13 l -17 675 l 220 675 l 220 203 q 271 149 220 150 l 322 149 l 323 675 m 424 831 q 271 682 423 682 l 119 682 l 119 844 l 170 844 q 186 865 186 844 l 186 1031 l 424 1031 l 424 831 z "},"þ":{"ha":610,"x_min":-17,"x_max":560,"o":"m 220 810 l 408 810 q 559 662 559 810 l 560 271 q 407 122 559 122 l 220 122 l 220 -14 l -17 -14 l -17 946 l 220 946 l 220 810 m 220 285 l 271 285 q 322 338 322 285 l 322 594 q 271 648 321 648 l 220 648 l 220 285 z "},"ÿ":{"ha":610,"x_min":-17,"x_max":559,"o":"m 323 675 l 559 675 l 559 -136 q 408 -285 559 -285 l 170 -285 l 170 -122 l 271 -122 q 321 -68 321 -122 l 321 -14 l 136 -14 q -17 136 -17 -13 l -17 675 l 220 675 l 220 203 q 271 149 220 150 l 322 149 l 323 675 m 220 732 l -17 732 l -17 946 l 220 946 l 220 732 m 559 732 l 322 732 l 322 946 l 559 946 l 559 732 z "},"ı":{"ha":271,"x_min":-17,"x_max":220,"o":"m -17 -14 l -17 675 l 220 675 l 220 -14 l -17 -14 z "},"ˆ":{"ha":543,"x_min":-17,"x_max":492,"o":"m -17 1124 l 127 1268 l 347 1268 l 492 1124 l 492 987 l 330 987 l 262 1055 l 211 1055 l 144 987 l -17 987 l -17 1124 z "},"ˇ":{"ha":543,"x_min":-17,"x_max":492,"o":"m 492 1131 l 347 987 l 128 987 l -17 1131 l -17 1267 l 144 1268 l 212 1200 l 264 1200 l 331 1268 l 492 1267 l 492 1131 z "},"ˉ":{"ha":694,"x_min":155,"x_max":539,"o":"m 155 797 l 155 909 l 539 909 l 539 797 l 155 797 z "},"˘":{"ha":694,"x_min":130,"x_max":564,"o":"m 130 928 l 197 928 q 244 853 210 873 q 347 833 279 833 q 449 852 416 833 q 496 928 483 872 l 564 928 q 493 769 547 819 q 347 718 438 718 q 202 769 257 718 q 130 928 146 820 z "},"˙":{"ha":271,"x_min":-17,"x_max":220,"o":"m 220 1004 l -17 1004 l -17 1217 l 220 1217 l 220 1004 z "},"˚":{"ha":271,"x_min":-17,"x_max":220,"o":"m 220 1004 l -17 1004 l -17 1217 l 220 1217 l 220 1004 z "},"˛":{"ha":339,"x_min":-17,"x_max":288,"o":"m -17 14 l 220 14 l 220 -102 q 237 -122 220 -122 l 288 -122 l 288 -285 l 136 -285 q -17 -136 -16 -285 l -17 14 z "},"˜":{"ha":610,"x_min":-17,"x_max":559,"o":"m 559 1259 l 559 1080 q 457 1005 503 1023 q 373 987 411 987 q 267 1021 334 987 q 170 1055 199 1055 q 101 1039 140 1055 q -17 945 62 1023 l -17 1124 q 86 1199 40 1181 q 170 1217 132 1217 q 277 1175 209 1217 q 373 1133 345 1133 q 441 1156 401 1133 q 559 1259 480 1179 z "},"˝":{"ha":694,"x_min":121,"x_max":564,"o":"m 121 718 l 229 922 q 265 970 247 954 q 307 986 283 986 q 352 968 334 986 q 370 927 370 950 q 362 899 370 913 q 339 867 354 884 l 195 718 l 121 718 m 315 718 l 422 922 q 458 970 440 954 q 500 986 476 986 q 546 968 528 986 q 564 927 564 950 q 555 899 564 913 q 532 867 547 884 l 388 718 l 315 718 z "},"–":{"ha":751,"x_min":21,"x_max":730,"o":"m 21 271 l 21 379 l 730 379 l 730 271 l 21 271 z "},"—":{"ha":1389,"x_min":-17,"x_max":1406,"o":"m -17 271 l -17 379 l 1406 379 l 1406 271 l -17 271 z "},"‘":{"ha":339,"x_min":-17,"x_max":288,"o":"m -17 997 l 220 997 l 220 831 q 237 810 220 810 l 288 810 l 288 648 l 136 648 q -17 797 -16 648 l -17 997 z "},"’":{"ha":339,"x_min":-17,"x_max":288,"o":"m 288 797 q 136 648 288 648 l -17 648 l -17 810 l 34 810 q 51 831 51 810 l 51 997 l 288 997 l 288 797 z "},"‚":{"ha":339,"x_min":-17,"x_max":288,"o":"m 288 0 q 136 -149 288 -149 l -17 -149 l -17 14 l 34 14 q 51 34 51 14 l 51 200 l 288 200 l 288 0 z "},"“":{"ha":644,"x_min":-17,"x_max":593,"o":"m 288 810 l 288 997 l 526 997 l 526 831 q 543 810 526 810 l 593 810 l 593 648 l 441 648 q 288 797 289 648 l 288 648 l 136 648 q -17 797 -16 648 l -17 997 l 220 997 l 220 831 q 237 810 220 810 l 288 810 z "},"”":{"ha":644,"x_min":-17,"x_max":593,"o":"m 288 797 q 136 648 288 648 l -17 648 l -17 810 l 34 810 q 51 831 51 810 l 51 997 l 288 997 l 288 810 l 339 810 q 356 831 356 810 l 356 997 l 593 997 l 593 797 q 441 648 593 648 l 288 648 l 288 797 z "},"„":{"ha":644,"x_min":-17,"x_max":593,"o":"m 288 0 q 136 -149 288 -149 l -17 -149 l -17 14 l 34 14 q 51 34 51 14 l 51 200 l 288 200 l 288 14 l 339 14 q 356 34 356 14 l 356 200 l 593 200 l 593 0 q 441 -149 593 -149 l 288 -149 l 288 0 z "},"†":{"ha":688,"x_min":31,"x_max":657,"o":"m 311 709 q 277 808 307 755 q 237 901 237 880 q 267 964 237 940 q 344 988 296 988 q 420 966 389 988 q 450 907 450 943 q 412 809 450 883 q 377 708 382 753 q 469 741 418 711 q 566 782 542 782 q 633 753 608 782 q 657 679 657 724 q 635 606 657 637 q 572 576 612 576 q 471 615 546 576 q 376 650 416 645 q 452 481 381 551 q 374 -197 378 164 l 315 -197 q 236 481 311 164 q 312 650 307 551 q 218 617 271 646 q 121 576 146 576 q 55 605 79 576 q 31 679 31 634 q 54 751 31 721 q 115 782 76 782 q 218 742 142 782 q 311 709 272 712 z "},"‡":{"ha":688,"x_min":31,"x_max":656,"o":"m 376 142 q 470 176 416 146 q 572 216 545 216 q 634 185 612 216 q 656 113 656 155 q 632 39 656 68 q 566 9 608 9 q 469 51 541 9 q 376 83 417 80 q 411 -18 381 38 q 450 -116 450 -92 q 419 -174 450 -152 q 343 -197 389 -197 q 266 -173 296 -197 q 237 -110 237 -149 q 277 -17 237 -88 q 311 83 307 36 q 217 50 271 79 q 115 9 141 9 q 53 40 75 9 q 31 113 31 71 q 55 186 31 157 q 121 216 79 216 q 218 174 145 216 q 311 142 270 146 q 235 396 306 276 q 311 650 306 515 q 218 617 270 646 q 121 576 145 576 q 55 605 79 576 q 31 679 31 634 q 53 751 31 721 q 115 782 75 782 q 217 742 141 782 q 311 709 271 712 q 277 808 307 755 q 237 901 237 880 q 266 964 237 940 q 343 988 296 988 q 419 966 389 988 q 450 907 450 943 q 411 809 450 883 q 376 708 381 753 q 469 741 417 711 q 566 782 541 782 q 632 753 608 782 q 656 679 656 724 q 634 606 656 637 q 572 576 612 576 q 470 615 545 576 q 376 650 416 645 q 452 396 380 515 q 376 142 380 276 z "},"•":{"ha":694,"x_min":130,"x_max":565,"o":"m 130 487 q 193 638 130 575 q 348 701 256 701 q 502 637 439 701 q 565 487 565 574 q 501 336 565 399 q 347 272 437 272 q 192 335 255 272 q 130 487 130 399 z "},"…":{"ha":814,"x_min":-17,"x_max":763,"o":"m 220 -14 l -17 -14 l -17 200 l 220 200 l 220 -14 m 492 -14 l 254 -14 l 254 200 l 492 200 l 492 -14 m 763 -14 l 526 -14 l 526 200 l 763 200 l 763 -14 z "},"‹":{"ha":543,"x_min":-17,"x_max":492,"o":"m -17 569 l 492 714 l 492 550 l 200 467 l 492 384 l 492 218 l -17 363 l -17 569 z "},"›":{"ha":543,"x_min":-17,"x_max":492,"o":"m 492 363 l -17 218 l -17 384 l 275 467 l -17 550 l -17 714 l 492 569 l 492 363 z "},"⁄":{"ha":610,"x_min":-22,"x_max":565,"o":"m 326 946 l 565 946 l 216 -14 l -22 -14 l 326 946 z "},"∕":{"ha":610,"x_min":-22,"x_max":565,"o":"m 326 946 l 565 946 l 216 -14 l -22 -14 l 326 946 z "},"₣":{"ha":543,"x_min":-17,"x_max":492,"o":"m 51 284 l 51 797 q 203 946 51 946 l 492 946 l 492 783 l 339 783 q 288 729 288 783 l 288 556 l 492 556 l 492 394 l 288 394 l 288 284 l 492 284 l 492 122 l 288 122 l 288 -14 l 51 -14 l 51 122 l -17 122 l -17 284 l 51 284 z "},"₤":{"ha":644,"x_min":-17,"x_max":602,"o":"m 85 149 l 85 511 l -16 511 l -17 675 l 85 675 l 85 797 q 238 946 85 946 l 492 946 l 492 783 l 374 783 q 322 729 323 783 l 322 675 l 424 675 l 425 512 l 322 512 l 322 149 l 602 149 l 520 -14 l -17 -14 l -17 149 l 85 149 z "},"₧":{"ha":678,"x_min":-17,"x_max":627,"o":"m 389 610 l 389 729 q 339 783 389 783 l 288 783 l 288 557 l 339 557 q 389 610 389 557 m 51 284 l 51 946 l 475 946 q 627 797 627 945 l 627 543 q 475 393 627 394 l 288 393 l 288 284 l 492 284 l 492 122 l 288 122 l 288 -14 l 51 -14 l 51 122 l -17 122 l -17 284 l 51 284 z "},"€":{"ha":746,"x_min":-17,"x_max":695,"o":"m 356 258 l 356 203 q 407 149 356 149 l 695 149 l 695 -14 l 271 -14 q 119 135 119 -14 l 119 258 l -17 258 l -17 422 l 119 422 l 119 513 l -17 513 l -17 675 l 119 675 l 119 796 q 271 946 119 946 l 695 945 l 695 783 l 407 783 q 356 730 356 783 l 356 675 l 492 675 l 492 513 l 356 513 l 356 422 l 492 422 l 492 258 l 356 258 z "},"№":{"ha":644,"x_min":-17,"x_max":594,"o":"m 441 548 l 441 548 q 458 568 458 548 l 458 831 q 441 851 458 851 q 424 831 424 851 l 424 568 q 441 548 424 548 m 288 534 l 288 453 l 153 453 l 152 831 q 136 851 152 851 q 119 831 119 851 l 119 453 l -17 453 l -17 946 l 203 946 q 288 865 288 946 l 288 865 q 373 946 288 945 l 509 946 q 594 865 594 946 l 594 534 q 509 453 594 453 l 373 453 q 288 534 288 453 z "},"™":{"ha":780,"x_min":-17,"x_max":729,"o":"m 254 851 l 186 851 l 186 453 l 51 453 l 51 851 l -17 851 l -17 946 l 644 946 q 729 865 729 946 l 729 453 l 594 453 l 594 822 q 577 842 594 842 l 576 842 q 560 823 560 842 l 559 453 l 424 453 l 424 822 q 407 843 424 842 q 391 822 391 843 l 390 453 l 254 453 l 254 851 z "},"∂":{"ha":1119,"x_min":0,"x_max":1017,"o":"m 136 0 q 0 136 0 0 l 0 882 q 136 1017 0 1017 l 882 1017 q 1017 882 1017 1017 l 1017 136 q 882 0 1017 0 l 136 0 m 882 17 q 1000 136 1000 17 l 1000 882 q 882 1000 1000 1000 l 136 1000 q 17 882 18 1000 l 17 136 q 136 17 18 17 l 882 17 z "},"∆":{"ha":1119,"x_min":0,"x_max":1017,"o":"m 136 0 q 0 136 0 0 l 0 882 q 136 1017 0 1017 l 882 1017 q 1017 882 1017 1017 l 1017 136 q 882 0 1017 0 l 136 0 m 882 17 q 1000 136 1000 17 l 1000 882 q 882 1000 1000 1000 l 136 1000 q 17 882 18 1000 l 17 136 q 136 17 18 17 l 882 17 z "},"∏":{"ha":1119,"x_min":0,"x_max":1017,"o":"m 136 0 q 0 136 0 0 l 0 882 q 136 1017 0 1017 l 882 1017 q 1017 882 1017 1017 l 1017 136 q 882 0 1017 0 l 136 0 m 882 17 q 1000 136 1000 17 l 1000 882 q 882 1000 1000 1000 l 136 1000 q 17 882 18 1000 l 17 136 q 136 17 18 17 l 882 17 z "},"∑":{"ha":1119,"x_min":0,"x_max":1017,"o":"m 136 0 q 0 136 0 0 l 0 882 q 136 1017 0 1017 l 882 1017 q 1017 882 1017 1017 l 1017 136 q 882 0 1017 0 l 136 0 m 882 17 q 1000 136 1000 17 l 1000 882 q 882 1000 1000 1000 l 136 1000 q 17 882 18 1000 l 17 136 q 136 17 18 17 l 882 17 z "},"−":{"ha":688,"x_min":42,"x_max":646,"o":"m 42 425 l 42 547 l 636 547 l 646 538 l 646 425 l 42 425 z "},"≈":{"ha":1119,"x_min":0,"x_max":1017,"o":"m 136 0 q 0 136 0 0 l 0 882 q 136 1017 0 1017 l 882 1017 q 1017 882 1017 1017 l 1017 136 q 882 0 1017 0 l 136 0 m 882 17 q 1000 136 1000 17 l 1000 882 q 882 1000 1000 1000 l 136 1000 q 17 882 18 1000 l 17 136 q 136 17 18 17 l 882 17 z "},"≤":{"ha":1119,"x_min":0,"x_max":1017,"o":"m 136 0 q 0 136 0 0 l 0 882 q 136 1017 0 1017 l 882 1017 q 1017 882 1017 1017 l 1017 136 q 882 0 1017 0 l 136 0 m 882 17 q 1000 136 1000 17 l 1000 882 q 882 1000 1000 1000 l 136 1000 q 17 882 18 1000 l 17 136 q 136 17 18 17 l 882 17 z "},"≥":{"ha":1119,"x_min":0,"x_max":1017,"o":"m 136 0 q 0 136 0 0 l 0 882 q 136 1017 0 1017 l 882 1017 q 1017 882 1017 1017 l 1017 136 q 882 0 1017 0 l 136 0 m 882 17 q 1000 136 1000 17 l 1000 882 q 882 1000 1000 1000 l 136 1000 q 17 882 18 1000 l 17 136 q 136 17 18 17 l 882 17 z "},"":{"ha":728,"x_min":0,"x_max":0,"o":""},"ﬁ":{"ha":728,"x_min":0,"x_max":0,"o":""},"":{"ha":733,"x_min":0,"x_max":0,"o":""},"ﬂ":{"ha":733,"x_min":0,"x_max":0,"o":""},"Œ":{"ha":814,"x_min":-17,"x_max":764,"o":"m 271 149 l 272 149 q 322 203 322 149 l 322 729 q 271 783 322 783 q 220 729 220 783 l 220 203 q 271 149 220 149 m 136 -14 q -17 136 -17 -14 l -17 796 q 136 946 -17 945 l 764 946 l 763 783 l 610 783 q 560 745 566 783 l 560 557 l 763 557 l 764 394 l 560 394 l 560 191 q 610 149 565 149 l 762 149 l 762 -14 l 136 -14 z "},"œ":{"ha":916,"x_min":-18,"x_max":899,"o":"m 271 149 l 272 149 q 322 203 322 149 l 321 458 q 271 512 321 512 q 220 458 220 512 l 220 203 q 271 149 220 149 m 136 -14 q -17 136 -17 -14 l -18 525 q 135 675 -18 673 l 746 674 q 899 525 899 674 l 899 406 q 741 257 899 258 l 560 258 l 560 192 q 608 149 564 149 l 899 149 l 899 -14 l 136 -14 m 559 465 l 559 409 l 610 409 q 661 457 661 409 q 610 511 661 511 q 559 465 562 511 z "},"‰":{"ha":983,"x_min":-17,"x_max":932,"o":"m 361 878 l 600 878 l 266 54 l 9 54 l 361 878 m 66 648 q -17 732 -16 651 l -17 865 q 68 946 -14 946 l 170 946 q 254 865 250 944 l 254 729 q 169 648 254 648 l 66 648 m 440 -14 q 356 68 356 -9 l 356 186 q 458 284 357 283 l 544 284 q 627 203 627 284 l 627 68 q 532 -14 627 -14 l 440 -14 m 745 -13 q 661 68 661 -8 l 661 187 q 764 285 663 284 l 849 285 q 932 203 932 285 l 932 68 q 838 -13 932 -13 l 745 -13 z "}}}
